Coordinates
version=1
nRows=21
nColumns=28
inDegrees=yes

Units are S.I. units (second, meters, Newtons, ...)
Angles are in degrees.

endheader
time	pelvis_tilt	pelvis_list	pelvis_rotation	pelvis_tx	pelvis_ty	pelvis_tz	hip_flexion_r	hip_adduction_r	hip_rotation_r	knee_angle_r	ankle_angle_r	subtalar_angle_r	mtp_angle_r	hip_flexion_l	hip_adduction_l	hip_rotation_l	knee_angle_l	socket_flexion	socket_adduction	socket_rotation	socket_tx	socket_ty	socket_tz	foot_flex	lumbar_extension	lumbar_bending	lumbar_rotation
      0.00000000	     -2.07438413	     -0.57844399	      0.97819480	     -0.81120410	      0.97036620	      0.28732552	    -21.47389607	      1.44102329	      4.20305750	     -4.97172475	     -4.25427744	    -21.33942497	      8.04063450	     24.72847121	      0.93237647	      4.84000541	      1.16984642	      1.98693656	     -4.31722127	      3.02324619	      0.01694286	      0.00038622	     -0.00555975	     -1.41389279	     -6.76699179	     -0.31395299	      1.39294103
      0.00416667	     -2.05609161	     -0.56618623	      0.92474657	     -0.80558694	      0.96911505	      0.28681731	    -21.71055659	      1.39431338	      4.17717712	     -5.15732514	     -4.34013587	    -21.24407765	      8.18762423	     24.78246315	      0.90557354	      4.86381765	      0.92772438	      2.21438495	     -4.22955936	      3.02296728	      0.01803127	     -0.00002003	     -0.00578842	     -1.90558472	     -6.73419713	     -0.37277692	      1.38199350
      0.00833333	     -2.04498111	     -0.53858123	      0.87551539	     -0.79970760	      0.96783743	      0.28628083	    -21.90937850	      1.33371678	      4.10193751	     -5.42645411	     -4.45292912	    -21.16640465	      8.34652440	     24.80010781	      0.90219879	      4.88895623	      0.69828863	      2.43211069	     -4.15581374	      3.02724889	      0.01884876	     -0.00042510	     -0.00594411	     -2.42463038	     -6.67925328	     -0.45023502	      1.39023031
      0.01250000	     -2.04283683	     -0.49601134	      0.81885038	     -0.79360950	      0.96654026	      0.28571386	    -22.08696362	      1.24917623	      3.99782201	     -5.73366064	     -4.58332139	    -21.09842875	      8.51392909	     24.81793875	      0.91191889	      4.89995071	      0.46237245	      2.65844461	     -4.08476429	      3.00873971	      0.01963004	     -0.00082154	     -0.00612951	     -2.96282052	     -6.61617565	     -0.54583608	      1.41401305
      0.01666667	     -2.05682846	     -0.44006603	      0.77492667	     -0.78736612	      0.96522317	      0.28510296	    -22.23869810	      1.15613318	      3.89882643	     -6.06808513	     -4.72270970	    -21.03978274	      8.67109576	     24.81686450	      0.93355471	      4.90876095	      0.22521379	      2.88757603	     -4.01469783	      2.98649108	      0.02000000	     -0.00122581	     -0.00639034	     -3.49837019	     -6.54226749	     -0.66137092	      1.44318431
      0.02083333	     -2.08354705	      0.01389572	      0.70827858	     -0.78044184	      0.96376081	      0.28424412	    -22.05444442	      0.44838472	      2.12742242	     -6.99498264	     -4.65853491	    -18.85739721	     16.60355237	     24.70526257	      1.53147149	      4.54546558	     -0.99780213	      2.01505721	     -4.20783786	      3.08725122	      0.01763969	     -0.00161540	     -0.00507314	     -4.07671637	     -6.36640541	     -1.24607757	      1.67890032
      0.02500000	     -2.07066134	      0.05423638	      0.67867815	     -0.77409838	      0.96254250	      0.28356815	    -22.21749148	      0.38046838	      2.13733214	     -7.35354954	     -4.84042529	    -18.88644737	     16.62246971	     24.73639453	      1.55982280	      4.55596198	     -1.27045055	      2.27881505	     -4.13202641	      3.04451267	      0.01850150	     -0.00204376	     -0.00527275	     -4.67399930	     -6.33649306	     -1.35166931	      1.66470061
      0.02916667	     -2.07889270	      0.11831471	      0.64558156	     -0.76755665	      0.96129835	      0.28290188	    -22.33311393	      0.28015264	      2.06355790	     -7.77538969	     -5.08640857	    -18.92405580	     16.64738767	     24.73892108	      1.58753122	      4.54359241	     -1.52058751	      2.52067547	     -4.03187131	      3.00892043	      0.01910347	     -0.00257125	     -0.00563978	     -5.32111769	     -6.27025771	     -1.48480048	      1.66122475
      0.03333333	     -2.09844476	      0.20270809	      0.62199883	     -0.76093772	      0.96011065	      0.28222671	    -22.39731873	      0.16033003	      1.95598286	     -8.26286285	     -5.39142271	    -18.95849403	     16.68630336	     24.73057320	      1.63402244	      4.51315641	     -1.76674894	      2.75915918	     -3.92719933	      2.98134200	      0.01955227	     -0.00307766	     -0.00605114	     -5.95409100	     -6.19186123	     -1.65039743	      1.66448850
      0.03750000	     -2.12694754	      0.30465362	      0.60892156	     -0.75428789	      0.95896724	      0.28151494	    -22.42160151	      0.02308234	      1.82595117	     -8.79877668	     -5.74279377	    -18.98403090	     16.73927756	     24.72219200	      1.70253892	      4.45699853	     -2.01437604	      2.99957390	     -3.81751885	      2.95379001	      0.01992624	     -0.00359696	     -0.00650056	     -6.56985143	     -6.10736096	     -1.83960455	      1.67129844
      0.04166667	     -2.17012945	      0.42098492	      0.59483457	     -0.74758091	      0.95785281	      0.28076871	    -22.39255734	     -0.13790104	      1.66439742	     -9.38952776	     -6.14637231	    -19.00449823	     16.81113468	     24.69431560	      1.78941440	      4.38417428	     -2.26479359	      3.23376446	     -3.71839001	      2.94478934	      0.02000000	     -0.00420043	     -0.00692981	     -7.14125146	     -6.00982280	     -2.04951231	      1.67871011
      0.04583333	     -2.18629501	      0.45230089	      0.60637096	     -0.74046174	      0.95676585	      0.27988774	    -22.55870914	     -0.19895895	      1.67441765	     -9.71323558	     -6.27291533	    -18.99700895	     16.83109958	     24.58556497	      1.82277126	      4.38297460	     -2.50724825	      3.46481161	     -3.66426467	      2.94093187	      0.02000000	     -0.00496498	     -0.00725767	     -7.31459275	     -5.79735835	     -2.10736883	      1.67741413
      0.05000000	     -2.45169607	      0.88669490	      0.52691957	     -0.73394234	      0.95579240	      0.27919478	    -21.91315249	     -0.79362240	      0.86599485	    -10.91571907	     -7.50115540	    -19.07027021	     17.40503454	     24.81566098	      2.31565446	      3.89807606	     -2.90653620	      3.61193023	     -3.71532711	      3.07493214	      0.02000000	     -0.00471184	     -0.00681772	     -7.90851565	     -5.52667169	     -2.72292779	      1.80035728
      0.05416667	     -2.47041269	      0.97575264	      0.65041444	     -0.72723408	      0.95496072	      0.27836958	    -21.95077196	     -0.83024569	      0.96511396	    -11.41958792	     -7.72929442	    -19.02129384	     17.50585431	     24.76940966	      2.40638946	      3.85231330	     -3.18044480	      3.85625313	     -3.56656915	      3.12039495	      0.02000000	     -0.00535510	     -0.00737314	     -8.40938201	     -5.47722102	     -2.91312433	      1.77405745
      0.05833333	     -2.47300638	      1.01055452	      0.70111613	     -0.72003104	      0.95416905	      0.27741270	    -22.08457435	     -0.87738621	      1.01434387	    -11.76609833	     -7.85762418	    -18.99905368	     17.52827680	     24.62794307	      2.44303294	      3.85137983	     -3.43262414	      4.08794501	     -3.49600800	      3.13067860	      0.02000000	     -0.00627271	     -0.00789783	     -8.55270170	     -5.28060111	     -2.96369140	      1.76207735
      0.06250000	     -2.93847092	      1.58632914	      0.66168942	     -0.71346271	      0.95322740	      0.27646328	    -21.02075899	     -1.68594160	      0.02091541	    -13.30520404	     -9.45686343	    -18.92021807	     18.94481025	     25.12107531	      3.21747383	      2.83100214	     -4.09728013	      4.06272873	     -3.74861674	      3.84698328	      0.02000000	     -0.00572296	     -0.00655206	     -9.02064208	     -4.76541771	     -3.79029679	      1.78481245
      0.06666667	     -2.82960223	      1.68163721	      0.60579284	     -0.70713182	      0.95292432	      0.27577222	    -20.82632415	     -1.86387184	     -0.04669731	    -14.32811807	    -10.00982532	    -18.81296002	     19.26628001	     24.98041195	      3.22200386	      2.57820908	     -4.55286254	      4.15546950	     -3.56875073	      3.84863707	      0.02000000	     -0.00641421	     -0.00733683	     -9.39448145	     -4.92251260	     -3.90174417	      1.67251507
      0.07083333	     -2.85545527	      1.86668241	      0.64321104	     -0.70063172	      0.95252610	      0.27494150	    -20.48184516	     -2.12604449	     -0.29346236	    -15.37383481	    -10.84065074	    -18.69490201	     19.66421547	     24.98208152	      3.41166566	      2.23582724	     -5.02903268	      4.30237867	     -3.51380125	      3.98380596	      0.02000000	     -0.00680990	     -0.00773338	     -9.49210622	     -4.88952133	     -4.19367952	      1.60729218
      0.07500000	     -3.34172153	      2.38638257	      0.83477630	     -0.69360245	      0.95166745	      0.27361605	    -19.75429981	     -2.75477484	     -0.84902873	    -16.29038751	    -11.96727908	    -18.57375332	     21.20802457	     25.56546135	      4.21632527	      1.25730141	     -5.97892386	      4.15080616	     -3.76514059	      4.81150543	      0.02000000	     -0.00641787	     -0.00629438	     -9.57740378	     -4.24675094	     -4.87635114	      1.61146554
      0.07916667	     -3.16048200	      2.43220683	      0.80627525	     -0.68757661	      0.95170446	      0.27267202	    -19.44601726	     -2.89512271	     -0.84965181	    -17.56323879	    -12.64880740	    -18.43776672	     21.45368974	     25.37382770	      4.22358615	      1.07996261	     -6.47174987	      4.29692912	     -3.64197531	      4.85858841	      0.02000000	     -0.00708887	     -0.00693714	     -9.54209005	     -4.52667110	     -4.95080105	      1.48475431
      0.08333333	     -3.50554032	      2.84997433	      0.96235211	     -0.68078179	      0.95124029	      0.27172405	    -18.74416722	     -3.40784683	     -1.21640198	    -18.62489045	    -13.95261547	    -18.28405981	     22.46297718	     25.77830836	      4.79833833	      0.38577860	     -7.34208607	      4.15297300	     -3.80754427	      5.37911769	      0.02000000	     -0.00683928	     -0.00617223	     -9.61878247	     -4.08646961	     -5.54216539	      1.43583670
